<svg width="256" height="256" viewBox="0 0 256 256" fill="none" xmlns="http://www.w3.org/2000/svg">
<g clip-path="url(#clip0_4_28)">
<path d="M167.697 171.902C167.697 151.333 151.022 134.658 130.453 134.658C109.884 134.658 93.2096 151.333 93.2096 171.902C93.2096 192.471 109.884 209.145 130.453 209.145V219.958C103.912 219.958 82.397 198.442 82.397 171.902C82.397 145.361 103.912 123.845 130.453 123.845C156.994 123.845 178.509 145.361 178.509 171.902C178.509 198.442 156.994 219.958 130.453 219.958V209.145C151.022 209.145 167.697 192.471 167.697 171.902Z" fill="#CD5C5C"/>
<circle cx="116.036" cy="181.513" r="9.61124" fill="#CD5C5C"/>
<circle cx="144.87" cy="181.513" r="9.61124" fill="#CD5C5C"/>
<path fill-rule="evenodd" clip-rule="evenodd" d="M245.788 22.3267C251.428 22.3267 256 26.8987 256 32.5386V75.7896C256 99.4631 240.612 119.541 219.294 126.572C219.118 122.853 218.579 119.209 217.705 115.66C233.771 109.545 245.187 94.0018 245.187 75.7896V33.1392H202.538C183.318 33.1392 167.068 45.8534 161.738 63.3296C158.321 62.3218 154.805 61.4771 151.204 60.8081C157.682 38.5737 178.212 22.3267 202.538 22.3267H245.788Z" fill="#CD5C5C"/>
<path d="M52.9629 22.3267C77.6579 22.3269 98.4414 39.0707 104.582 61.8247C100.999 62.6202 97.5153 63.574 94.1455 64.6724C89.2545 46.5088 72.6716 33.1394 52.9629 33.1392H10.3125V75.7896C10.3127 95.8943 24.2247 112.746 42.9463 117.252C42.8167 118.637 42.751 120.035 42.751 121.443C42.751 123.787 42.9336 126.101 43.2891 128.377C18.3805 123.825 -0.49983 102.013 -0.5 75.7896V32.5386C-0.49998 26.8987 4.07204 22.3267 9.71191 22.3267H52.9629Z" fill="#CD5C5C"/>
<path d="M215.753 142.467C215.753 98.0074 177.563 61.9655 130.453 61.9655C83.3434 61.9655 45.1534 98.0074 45.1534 142.467C45.1534 186.927 83.3434 222.969 130.453 222.969V233.173C77.3717 233.173 34.3408 192.563 34.3408 142.467C34.3408 92.3716 77.3717 51.7611 130.453 51.7611C183.535 51.7611 226.566 92.3716 226.566 142.467C226.566 192.563 183.535 233.173 130.453 233.173V222.969C177.563 222.969 215.753 186.927 215.753 142.467Z" fill="#CD5C5C"/>
</g>
<defs>
<clipPath id="clip0_4_28">
<rect width="256" height="256" fill="white"/>
</clipPath>
</defs>
</svg>
